<?xml version="1.0" encoding="utf-8"?>
<!-- Generator: Adobe Illustrator 24.1.0, SVG Export Plug-In . SVG Version: 6.00 Build 0)  -->
<svg version="1.1" id="Ebene_1" xmlns="http://www.w3.org/2000/svg" xmlns:xlink="http://www.w3.org/1999/xlink" x="0px" y="0px"
	 viewBox="0 0 400.07608 61.36057" style="enable-background:new 0 0 400.07608 61.36057;" xml:space="preserve">
<style type="text/css">
	.st0{fill:#F7F7F7;}
	.st1{clip-path:url(#SVGID_2_);}
	.st2{fill:#FEF7D9;}
	.st3{clip-path:url(#SVGID_6_);}
	.st4{filter:url(#Adobe_OpacityMaskFilter);}
	.st5{filter:url(#Adobe_OpacityMaskFilter_1_);}
	.st6{fill:#E9EAE8;}
	.st7{fill:#4CAEA8;}
	.st8{fill:#FFF7DA;}
	.st9{fill:#68BEBD;}
	.st10{fill:none;}
	.st11{fill:#FFFFFF;}
	.st12{clip-path:url(#SVGID_10_);}
	.st13{enable-background:new    ;}
	.st14{opacity:0.34902;}
	.st15{fill-rule:evenodd;clip-rule:evenodd;fill:#FFFFFF;}
	.st16{opacity:0.30196;}
	.st17{clip-path:url(#SVGID_60_);}
	.st18{fill:#50ADA4;}
	.st19{clip-path:url(#SVGID_62_);}
	.st20{fill:#F7F8F7;}
	.st21{clip-path:url(#SVGID_64_);}
	.st22{clip-path:url(#SVGID_66_);}
	.st23{fill:#48AC98;}
	.st24{clip-path:url(#SVGID_68_);}
	.st25{clip-path:url(#SVGID_70_);}
	.st26{clip-path:url(#SVGID_72_);}
</style>
<path d="M51.94443,26.44163v-4.57617h11.10254l0.31152,3.71777c0.90137-1.35156,2.03223-2.39648,3.39355-3.13281
	c1.36035-0.73633,2.93359-1.10547,4.71973-1.10547c1.80176,0,3.34473,0.39941,4.62793,1.19629
	c1.28223,0.79785,2.25293,2.00195,2.91211,3.61426c0.86621-1.50781,1.99316-2.68652,3.37988-3.53613
	s3.01562-1.27441,4.88867-1.27441c2.77246,0,4.96094,0.95801,6.56445,2.87305c1.60352,1.91602,2.40527,4.83203,2.40527,8.75v11.7002
	l3.66602,0.78027v4.5498H85.38193v-4.5498l3.27637-0.78027V32.94163c0-2.13184-0.34766-3.61426-1.04004-4.44629
	c-0.69434-0.83203-1.72559-1.24805-3.09473-1.24805c-1.0752,0-2.00586,0.23828-2.79492,0.71484
	c-0.78906,0.47754-1.41699,1.14062-1.88477,1.98926c0,0.33008,0.00781,0.61133,0.02539,0.84473
	c0.01758,0.23438,0.02637,0.47266,0.02637,0.71582v13.15625l3.06836,0.78027v4.5498H69.26083v-4.5498l3.06836-0.78027V32.94163
	c0-2.08008-0.34668-3.54883-1.04004-4.40723s-1.7334-1.28711-3.12012-1.28711c-1.02246,0-1.91992,0.19531-2.69141,0.58496
	c-0.77148,0.39062-1.4082,0.94043-1.91016,1.65137v15.18457l3.27539,0.78027v4.5498H52.33505v-4.5498l3.66602-0.78027V27.22092
	L51.94443,26.44163z M115.30283,50.54417c-4.05566,0-7.29785-1.2998-9.72461-3.90039
	c-2.42676-2.59961-3.63965-5.90137-3.63965-9.90625v-1.04004c0-4.17676,1.14844-7.61816,3.44531-10.32227
	c2.2959-2.7041,5.37695-4.04688,9.24316-4.03027c3.7959,0,6.74219,1.14453,8.83984,3.43262s3.14648,5.38184,3.14648,9.28223v4.13379
	H109.8165l-0.05176,0.15625c0.13867,1.85547,0.75781,3.37988,1.85938,4.57617c1.10059,1.19629,2.5957,1.79395,4.48438,1.79395
	c1.68164,0,3.07715-0.16895,4.18652-0.50684s2.32227-0.87109,3.64062-1.59961l2.05371,4.68066
	c-1.16113,0.91895-2.66504,1.69043-4.51074,2.31445C119.63193,50.23264,117.57333,50.54417,115.30283,50.54417z M114.62704,27.19553
	c-1.4043,0-2.51367,0.53711-3.32812,1.6123c-0.81543,1.07422-1.31738,2.4873-1.50781,4.2373l0.07715,0.13086h9.30859v-0.67676
	c0-1.61133-0.37695-2.89844-1.13086-3.86035C117.29208,27.676,116.15244,27.19553,114.62704,27.19553z M129.3956,14.01292V9.43674
	h11.64844v35.23145l3.66602,0.78027v4.5498h-14.9248v-4.5498l3.66699-0.78027v-29.875L129.3956,14.01292z M147.1915,35.6721
	c0-4.19531,1.1748-7.63184,3.52344-10.30957c2.34863-2.67871,5.59473-4.01758,9.7373-4.01758
	c4.16016,0,7.41406,1.33496,9.76367,4.00488c2.34863,2.66895,3.52344,6.10938,3.52344,10.32227v0.5459
	c0,4.22949-1.1748,7.6748-3.52344,10.33496c-2.34961,2.66113-5.58594,3.99121-9.71191,3.99121
	c-4.17773,0-7.44043-1.33008-9.78906-3.99121c-2.34863-2.66016-3.52344-6.10547-3.52344-10.33496V35.6721z M154.78427,36.21799
	c0,2.56543,0.4502,4.62402,1.35156,6.1748c0.90137,1.55176,2.35742,2.32715,4.36816,2.32715
	c1.95898,0,3.39355-0.78027,4.30371-2.33984c0.91016-1.56055,1.36523-3.61426,1.36523-6.16211v-0.5459
	c0-2.49609-0.45996-4.5332-1.37891-6.11035s-2.36523-2.36621-4.3418-2.36621c-1.97559,0-3.41504,0.78906-4.31641,2.36621
	s-1.35156,3.61426-1.35156,6.11035V36.21799z M177.50888,36.16624c0-4.4375,0.96582-8.01758,2.89844-10.73926
	c1.93262-2.7207,4.6416-4.08203,8.12598-4.08203c1.57715,0,2.96387,0.35156,4.16016,1.05371
	c1.19531,0.70117,2.21777,1.70312,3.06738,3.00293l0.5459-3.53613h6.60449v27.30078c0,3.70898-1.16602,6.66895-3.49707,8.87891
	c-2.33105,2.21094-5.53418,3.31543-9.60742,3.31543c-1.4209,0-2.92969-0.19531-4.52344-0.58496
	c-1.5957-0.38965-3.06836-0.92285-4.4209-1.59863l1.4043-5.33105c1.21289,0.52051,2.42676,0.93164,3.63965,1.23535
	c1.21387,0.30371,2.49609,0.45508,3.84863,0.45508c1.85449,0,3.24121-0.56348,4.16016-1.69043s1.37793-2.69531,1.37793-4.70605
	v-1.8457c-0.83203,1.05762-1.81152,1.86328-2.9375,2.41797c-1.12793,0.55469-2.41895,0.83203-3.875,0.83203
	c-3.44922,0-6.14062-1.26953-8.07324-3.80859c-1.93262-2.54004-2.89844-5.88086-2.89844-10.02344V36.16624z M185.10068,36.71214
	c0,2.46094,0.41602,4.39844,1.24805,5.81055c0.83203,1.41309,2.18457,2.11914,4.05664,2.11914
	c1.16113,0,2.14453-0.21191,2.95117-0.63672c0.80566-0.4248,1.45117-1.04395,1.93652-1.85938V29.926
	c-0.48535-0.84961-1.13086-1.50879-1.93652-1.97656c-0.80664-0.46777-1.77344-0.70215-2.89941-0.70215
	c-1.85547,0-3.21094,0.82324-4.06934,2.46973c-0.8584,1.64746-1.28711,3.79688-1.28711,6.44922V36.71214z M239.93564,23.99729
	h-2.41797l-0.44238-5.74609c-1.00586-1.19629-2.31445-2.16211-3.92578-2.89941c-1.6123-0.73633-3.47559-1.10449-5.59082-1.10449
	c-4.22949,0-7.5918,1.53809-10.08789,4.61523c-2.49609,3.07617-3.74414,7.05078-3.74414,11.9209v0.5459
	c0,4.87109,1.23438,8.85352,3.70508,11.94727c2.46973,3.09473,5.71582,4.6416,9.7373,4.6416
	c2.13184,0,4.06934-0.37207,5.81152-1.11816c1.74121-0.74512,3.10645-1.70703,4.09473-2.88574l0.44238-5.74609h2.41797v6.65625
	c-1.17969,1.62891-2.89941,2.99023-5.16113,4.08203c-2.2627,1.0918-4.79785,1.6377-7.60547,1.6377
	c-4.85352,0-8.82324-1.79785-11.9082-5.39551c-3.08594-3.59668-4.62891-8.20312-4.62891-13.81934v-0.49414
	c0-5.63281,1.53809-10.24805,4.61523-13.84473s7.10254-5.39551,12.07812-5.39551c2.80762,0,5.31641,0.55078,7.52734,1.65137
	c2.20996,1.10059,3.90332,2.46582,5.08301,4.09473V23.99729z M264.9747,49.99827c-0.20898-0.95312-0.35645-1.77637-0.44238-2.46973
	c-0.08691-0.69336-0.12988-1.39551-0.12988-2.10645c-1.04004,1.47363-2.42773,2.69531-4.16016,3.66602
	c-1.7334,0.9707-3.68359,1.45605-5.85059,1.45605c-2.75586,0-4.8877-0.70996-6.39648-2.13184
	c-1.50781-1.4209-2.26172-3.3457-2.26172-5.77246c0-2.59961,1.11816-4.66211,3.35449-6.18848
	c2.23535-1.52441,5.26855-2.28809,9.09961-2.28809h6.21484v-3.71777c0-2.01074-0.64648-3.58789-1.9375-4.73242
	c-1.29102-1.14355-3.09863-1.71582-5.4209-1.71582c-1.56055,0-2.98633,0.21289-4.27734,0.63672
	c-1.29102,0.4248-2.37012,1.00098-3.2373,1.72949l-0.25977,3.76953h-2.57422l0.02637-5.4082
	c1.2998-1.00488,2.85547-1.81934,4.66699-2.44336s3.73926-0.93652,5.78516-0.93652c3.10254,0,5.59863,0.78906,7.48828,2.36621
	c1.88867,1.57812,2.83398,3.83984,2.83398,6.78613V44.3303c0,0.57227,0.0127,1.12207,0.03906,1.65039
	c0.02637,0.5293,0.08203,1.04492,0.16895,1.54785l2.80859,0.18164v2.28809H264.9747z M254.72958,47.78831
	c2.25293,0,4.23828-0.52051,5.9541-1.56055c1.7168-1.04004,2.95508-2.38281,3.71875-4.03027v-5.6416h-6.2666
	c-2.8252,0-5.08301,0.58496-6.77344,1.75488c-1.68945,1.16992-2.53516,2.64844-2.53516,4.43359
	c0,1.50781,0.52441,2.72559,1.57324,3.65234C251.44931,47.32444,252.89267,47.78831,254.72958,47.78831z M281.66611,21.86546
	l0.39062,4.67969v0.33789c0.79688-1.73242,1.88477-3.08887,3.2627-4.06836s3.01172-1.46973,4.90137-1.46973
	c0.39844,0,0.78418,0.03027,1.15723,0.09082c0.37207,0.06152,0.67969,0.12598,0.92285,0.19531l-0.41602,2.91211l-2.31445-0.15625
	c-1.95898,0-3.56641,0.55078-4.82227,1.65137c-1.25781,1.10059-2.1543,2.61328-2.69141,4.53711v16.79688l4.23828,0.33789v2.28809
	H274.7247v-2.28809l4.23828-0.33789V24.5178l-4.23828-0.33887v-2.31348h4.23828H281.66611z M307.67242,50.54417
	c-3.53613,0-6.46582-1.2959-8.78809-3.88672c-2.32324-2.5918-3.48438-5.88965-3.48438-9.89355v-1.42969
	c0-4.02148,1.15723-7.3584,3.4707-10.01074c2.31445-2.65234,5.10938-3.97852,8.38574-3.97852
	c3.44922,0,6.16211,1.09277,8.1377,3.27637c1.97656,2.18359,2.96484,5.0957,2.96484,8.73633v2.65234h-19.86523v0.75391
	c0,3.15527,0.84473,5.80273,2.53516,7.94336s3.9043,3.21094,6.64355,3.21094c1.92383,0,3.57031-0.26855,4.94043-0.80566
	c1.36816-0.53711,2.53906-1.30859,3.50977-2.31445l1.32617,2.13184c-1.05762,1.10938-2.39258,1.98926-4.00391,2.63965
	C311.83258,50.21897,309.90778,50.54417,307.67242,50.54417z M307.25641,23.99729c-2.28809,0-4.2168,0.87988-5.78516,2.63867
	c-1.56934,1.75977-2.4834,3.96582-2.74316,6.61816l0.05176,0.12988h16.48438v-0.78027c0-2.44434-0.71973-4.48926-2.1582-6.13672
	C311.66754,24.82053,309.71735,23.99729,307.25641,23.99729z M33.74902,9.46642v10.08789H27.9248l-0.31152-4.2373h-6.96875v29.38086
	l4.62357,0.78027v4.5498H8.99609v-4.5498l4.05664-0.78027V15.31701H6.11035l-0.3125,4.2373H0V9.46642H33.74902z M33.33332,45.47814
	l4.23294-0.78027V27.2506v-0.7793v-4.57617h7.5918v22.80273l3.64062,0.78027v4.5498H33.33332V45.47814z M45.15807,15.16076h-7.5918
	V9.46642h7.5918V15.16076z"/>
<g>
	<path class="st9" d="M392.00354,60.54417h-44.39908c-4.45834,0-8.07254-3.61421-8.07254-8.07256V8.07256
		c0-4.45835,3.6142-8.07256,8.07254-8.07256h44.39908c4.45834,0,8.07254,3.61421,8.07254,8.07256v44.39906
		C400.07608,56.92996,396.46188,60.54417,392.00354,60.54417z"/>
	<g>
		<path class="st11" d="M388.40622,9.40527v11.12222h-6.41843l-0.3457-4.67238h-7.68079v29.4084l4.47159,0.85905v5.01635h-17.31366
			v-5.01635l4.47333-0.85905V15.8551h-7.6546l-0.34219,4.67238h-6.39398V9.40527H388.40622z"/>
	</g>
</g>
</svg>
